<svg xmlns="http://www.w3.org/2000/svg" aria-hidden="true" style="position:absolute;width:0;height:0;overflow:hidden">
  <defs>
    <symbol id="phone" viewBox="0 0 32 32">
      <path d="M23.333 2.667c.368 0 .667.299.667.667v25.333a.667.667 0 0 1-.667.667H8.666a.667.667 0 0 1-.667-.667V3.334c0-.368.299-.667.667-.667h14.667zm3.334 0A2.668 2.668 0 0 0 24 0H8a2.668 2.668 0 0 0-2.667 2.667v26.667A2.668 2.668 0 0 0 8 32.001h16a2.668 2.668 0 0 0 2.667-2.667V2.667zM14 4h4a.668.668 0 0 1 0 1.333h-4A.668.668 0 0 1 14 4zm2 24a1.333 1.333 0 1 1 0-2.665A1.333 1.333 0 0 1 16 28zm6.667-4H9.334V6.667h13.333V24z"/>
    </symbol>
    <symbol id="email" viewBox="0 0 32 32">
      <path d="M0 4v24h32V4H0zm8.831 10.572-6.164 7.616V9.577l6.164 4.995zM3.309 6.667h25.38L16 16.951 3.309 6.667zm7.592 9.584L16 20.383l5.107-4.139 7.483 9.089H3.551l7.351-9.083zm12.278-1.686 6.155-4.988v12.464l-6.155-7.476z"/>
    </symbol>
    <symbol id="linkedin" viewBox="0 0 32 32">
      <path d="M25.333 0H6.666A6.668 6.668 0 0 0-.001 6.667v18.667a6.668 6.668 0 0 0 6.667 6.667h18.667A6.666 6.666 0 0 0 32 25.334V6.667A6.667 6.667 0 0 0 25.333 0zM10.667 25.333h-4V10.666h4v14.667zm-2-16.357c-1.288 0-2.333-1.053-2.333-2.352s1.045-2.352 2.333-2.352S11 5.325 11 6.624 9.956 8.976 8.667 8.976zm18 16.357h-4v-7.472c0-4.491-5.333-4.151-5.333 0v7.472h-4V10.666h4v2.353c1.861-3.448 9.333-3.703 9.333 3.301v9.012z"/>
    </symbol>
    <symbol id="github" viewBox="0 0 32 32">
      <path d="M16 0C7.165 0 0 7.164 0 16c0 7.069 4.584 13.067 10.943 15.183.799.148 1.057-.348 1.057-.769v-2.979c-4.451.968-5.377-1.888-5.377-1.888-.728-1.849-1.777-2.341-1.777-2.341-1.452-.993.111-.972.111-.972 1.607.112 2.452 1.649 2.452 1.649 1.427 2.445 3.743 1.739 4.656 1.329.143-1.033.557-1.74 1.016-2.139-3.553-.407-7.289-1.779-7.289-7.908 0-1.748.625-3.175 1.648-4.295-.165-.404-.713-2.032.156-4.235 0 0 1.344-.429 4.401 1.64a15.345 15.345 0 0 1 4.004-.539c1.36.007 2.729.184 4.008.539 3.055-2.069 4.396-1.64 4.396-1.64.871 2.204.323 3.832.157 4.235 1.027 1.12 1.647 2.548 1.647 4.295 0 6.145-3.743 7.499-7.305 7.895.573.496 1.097 1.469 1.097 2.963v4.391c0 .425.256.925 1.068.768 6.353-2.119 10.932-8.115 10.932-15.181 0-8.836-7.164-16-16-16z"/>
    </symbol>
  </defs>
</svg>
